<mxfile host="app.diagrams.net" agent="Mozilla/5.0 (Windows NT 10.0; Win64; x64) AppleWebKit/537.36 (KHTML, like Gecko) Chrome/130.0.0.0 Safari/537.36" version="24.8.3">
  <diagram name="第 1 页" id="bNRUMGfdpHtpgNB-Gve9">
    <mxGraphModel dx="2261" dy="746" grid="1" gridSize="10" guides="1" tooltips="1" connect="1" arrows="1" fold="1" page="1" pageScale="1" pageWidth="827" pageHeight="1169" math="0" shadow="0">
      <root>
        <mxCell id="0" />
        <mxCell id="1" parent="0" />
        <mxCell id="2RxM4l89XDD24nxAgFgx-1" value="Nacos&lt;div&gt;&lt;br&gt;&lt;/div&gt;" style="rounded=0;whiteSpace=wrap;html=1;fontSize=18;verticalAlign=top;align=left;" vertex="1" parent="1">
          <mxGeometry x="-130" y="140" width="420" height="220" as="geometry" />
        </mxCell>
        <mxCell id="2RxM4l89XDD24nxAgFgx-2" value="&lt;div&gt;OpenFeign&lt;/div&gt;" style="rounded=0;whiteSpace=wrap;html=1;fontSize=18;verticalAlign=top;align=left;" vertex="1" parent="1">
          <mxGeometry x="407" y="140" width="420" height="220" as="geometry" />
        </mxCell>
      </root>
    </mxGraphModel>
  </diagram>
</mxfile>
